<?xml version="1.0" encoding="UTF-8"?>
<svg xmlns="http://www.w3.org/2000/svg" width="421" height="37">
   <defs>
      <style type="text/css">
    @namespace "http://www.w3.org/2000/svg";
    .line                 {fill: none; stroke: #332900; stroke-width: 1;}
    .bold-line            {stroke: #141000; shape-rendering: crispEdges; stroke-width: 2;}
    .thin-line            {stroke: #1F1800; shape-rendering: crispEdges}
    .filled               {fill: #332900; stroke: none;}
    text.terminal         {font-family: Verdana, Sans-serif;
                            font-size: 12px;
                            fill: #141000;
                            font-weight: bold;
                          }
    text.nonterminal      {font-family: Verdana, Sans-serif;
                            font-size: 12px;
                            fill: #1A1400;
                            font-weight: normal;
                          }
    text.regexp           {font-family: Verdana, Sans-serif;
                            font-size: 12px;
                            fill: #1F1800;
                            font-weight: normal;
                          }
    rect, circle, polygon {fill: #332900; stroke: #332900;}
    rect.terminal         {fill: #FFDB4D; stroke: #332900; stroke-width: 1;}
    rect.nonterminal      {fill: #FFEC9E; stroke: #332900; stroke-width: 1;}
    rect.text             {fill: none; stroke: none;}
    polygon.regexp        {fill: #FFF4C7; stroke: #332900; stroke-width: 1;}
  </style>
   </defs>
   <polygon points="9 17 1 13 1 21"/>
   <polygon points="17 17 9 13 9 21"/>
   <rect x="31" y="3" width="34" height="32" rx="10"/>
   <rect x="29"
         y="1"
         width="34"
         height="32"
         class="terminal"
         rx="10"/>
   <text class="terminal" x="39" y="21">as</text>
   <rect x="85" y="3" width="30" height="32" rx="10"/>
   <rect x="83"
         y="1"
         width="30"
         height="32"
         class="terminal"
         rx="10"/>
   <text class="terminal" x="93" y="21">&lt;</text>
   <a xmlns:xlink="http://www.w3.org/1999/xlink"
      xlink:href="#type"
      xlink:title="type">
      <rect x="135" y="3" width="48" height="32"/>
      <rect x="133" y="1" width="48" height="32" class="nonterminal"/>
      <text class="nonterminal" x="143" y="21">type</text>
   </a>
   <rect x="203" y="3" width="30" height="32" rx="10"/>
   <rect x="201"
         y="1"
         width="30"
         height="32"
         class="terminal"
         rx="10"/>
   <text class="terminal" x="211" y="21">&gt;</text>
   <rect x="253" y="3" width="26" height="32" rx="10"/>
   <rect x="251"
         y="1"
         width="26"
         height="32"
         class="terminal"
         rx="10"/>
   <text class="terminal" x="261" y="21">(</text>
   <a xmlns:xlink="http://www.w3.org/1999/xlink"
      xlink:href="#expr"
      xlink:title="expr">
      <rect x="299" y="3" width="48" height="32"/>
      <rect x="297" y="1" width="48" height="32" class="nonterminal"/>
      <text class="nonterminal" x="307" y="21">expr</text>
   </a>
   <rect x="367" y="3" width="26" height="32" rx="10"/>
   <rect x="365"
         y="1"
         width="26"
         height="32"
         class="terminal"
         rx="10"/>
   <text class="terminal" x="375" y="21">)</text>
   <path class="line"
         d="m17 17 h2 m0 0 h10 m34 0 h10 m0 0 h10 m30 0 h10 m0 0 h10 m48 0 h10 m0 0 h10 m30 0 h10 m0 0 h10 m26 0 h10 m0 0 h10 m48 0 h10 m0 0 h10 m26 0 h10 m3 0 h-3"/>
   <polygon points="411 17 419 13 419 21"/>
   <polygon points="411 17 403 13 403 21"/>
</svg>
