<?xml version="1.0" encoding="UTF-8"?>
<svg xmlns="http://www.w3.org/2000/svg" width="215" height="257">
   <defs>
      <style type="text/css">
    @namespace "http://www.w3.org/2000/svg";
    .line                 {fill: none; stroke: #332900; stroke-width: 1;}
    .bold-line            {stroke: #141000; shape-rendering: crispEdges; stroke-width: 2;}
    .thin-line            {stroke: #1F1800; shape-rendering: crispEdges}
    .filled               {fill: #332900; stroke: none;}
    text.terminal         {font-family: Verdana, Sans-serif;
                            font-size: 12px;
                            fill: #141000;
                            font-weight: bold;
                          }
    text.nonterminal      {font-family: Verdana, Sans-serif;
                            font-size: 12px;
                            fill: #1A1400;
                            font-weight: normal;
                          }
    text.regexp           {font-family: Verdana, Sans-serif;
                            font-size: 12px;
                            fill: #1F1800;
                            font-weight: normal;
                          }
    rect, circle, polygon {fill: #332900; stroke: #332900;}
    rect.terminal         {fill: #FFDB4D; stroke: #332900; stroke-width: 1;}
    rect.nonterminal      {fill: #FFEC9E; stroke: #332900; stroke-width: 1;}
    rect.text             {fill: none; stroke: none;}
    polygon.regexp        {fill: #FFF4C7; stroke: #332900; stroke-width: 1;}
  </style>
   </defs>
   <polygon points="9 17 1 13 1 21"/>
   <polygon points="17 17 9 13 9 21"/>
   <a xmlns:xlink="http://www.w3.org/1999/xlink"
      xlink:href="#NUMERIC_TYPE"
      xlink:title="NUMERIC_TYPE">
      <rect x="51" y="3" width="116" height="32"/>
      <rect x="49" y="1" width="116" height="32" class="nonterminal"/>
      <text class="nonterminal" x="59" y="21">NUMERIC_TYPE</text>
   </a>
   <a xmlns:xlink="http://www.w3.org/1999/xlink"
      xlink:href="#VEC_TYPE"
      xlink:title="VEC_TYPE">
      <rect x="51" y="47" width="84" height="32"/>
      <rect x="49" y="45" width="84" height="32" class="nonterminal"/>
      <text class="nonterminal" x="59" y="65">VEC_TYPE</text>
   </a>
   <a xmlns:xlink="http://www.w3.org/1999/xlink"
      xlink:href="#MAT_TYPE"
      xlink:title="MAT_TYPE">
      <rect x="51" y="91" width="84" height="32"/>
      <rect x="49" y="89" width="84" height="32" class="nonterminal"/>
      <text class="nonterminal" x="59" y="109">MAT_TYPE</text>
   </a>
   <rect x="51" y="135" width="50" height="32" rx="10"/>
   <rect x="49"
         y="133"
         width="50"
         height="32"
         class="terminal"
         rx="10"/>
   <text class="terminal" x="59" y="153">float</text>
   <rect x="51" y="179" width="48" height="32" rx="10"/>
   <rect x="49"
         y="177"
         width="48"
         height="32"
         class="terminal"
         rx="10"/>
   <text class="terminal" x="59" y="197">void</text>
   <rect x="51" y="223" width="38" height="32" rx="10"/>
   <rect x="49"
         y="221"
         width="38"
         height="32"
         class="terminal"
         rx="10"/>
   <text class="terminal" x="59" y="241">str</text>
   <path class="line"
         d="m17 17 h2 m20 0 h10 m116 0 h10 m-156 0 h20 m136 0 h20 m-176 0 q10 0 10 10 m156 0 q0 -10 10 -10 m-166 10 v24 m156 0 v-24 m-156 24 q0 10 10 10 m136 0 q10 0 10 -10 m-146 10 h10 m84 0 h10 m0 0 h32 m-146 -10 v20 m156 0 v-20 m-156 20 v24 m156 0 v-24 m-156 24 q0 10 10 10 m136 0 q10 0 10 -10 m-146 10 h10 m84 0 h10 m0 0 h32 m-146 -10 v20 m156 0 v-20 m-156 20 v24 m156 0 v-24 m-156 24 q0 10 10 10 m136 0 q10 0 10 -10 m-146 10 h10 m50 0 h10 m0 0 h66 m-146 -10 v20 m156 0 v-20 m-156 20 v24 m156 0 v-24 m-156 24 q0 10 10 10 m136 0 q10 0 10 -10 m-146 10 h10 m48 0 h10 m0 0 h68 m-146 -10 v20 m156 0 v-20 m-156 20 v24 m156 0 v-24 m-156 24 q0 10 10 10 m136 0 q10 0 10 -10 m-146 10 h10 m38 0 h10 m0 0 h78 m23 -220 h-3"/>
   <polygon points="205 17 213 13 213 21"/>
   <polygon points="205 17 197 13 197 21"/>
</svg>
