<?xml version="1.0" encoding="UTF-8"?>
<svg xmlns="http://www.w3.org/2000/svg" width="157" height="57">
   <defs>
      <style type="text/css">
    @namespace "http://www.w3.org/2000/svg";
    .line                 {fill: none; stroke: #332900; stroke-width: 1;}
    .bold-line            {stroke: #141000; shape-rendering: crispEdges; stroke-width: 2;}
    .thin-line            {stroke: #1F1800; shape-rendering: crispEdges}
    .filled               {fill: #332900; stroke: none;}
    text.terminal         {font-family: Verdana, Sans-serif;
                            font-size: 12px;
                            fill: #141000;
                            font-weight: bold;
                          }
    text.nonterminal      {font-family: Verdana, Sans-serif;
                            font-size: 12px;
                            fill: #1A1400;
                            font-weight: normal;
                          }
    text.regexp           {font-family: Verdana, Sans-serif;
                            font-size: 12px;
                            fill: #1F1800;
                            font-weight: normal;
                          }
    rect, circle, polygon {fill: #332900; stroke: #332900;}
    rect.terminal         {fill: #FFDB4D; stroke: #332900; stroke-width: 1;}
    rect.nonterminal      {fill: #FFEC9E; stroke: #332900; stroke-width: 1;}
    rect.text             {fill: none; stroke: none;}
    polygon.regexp        {fill: #FFF4C7; stroke: #332900; stroke-width: 1;}
  </style>
   </defs>
   <polygon points="9 5 1 1 1 9"/>
   <polygon points="17 5 9 1 9 9"/>
   <polygon points="51 39 58 23 102 23 109 39 102 55 58 55"/>
   <polygon points="49 37 56 21 100 21 107 37 100 53 56 53" class="regexp"/>
   <text class="regexp" x="64" y="41">[^'\]</text>
   <path class="line"
         d="m17 5 h2 m20 0 h10 m0 0 h68 m-98 0 h20 m78 0 h20 m-118 0 q10 0 10 10 m98 0 q0 -10 10 -10 m-108 10 v12 m98 0 v-12 m-98 12 q0 10 10 10 m78 0 q10 0 10 -10 m-88 10 h10 m58 0 h10 m23 -32 h-3"/>
   <polygon points="147 5 155 1 155 9"/>
   <polygon points="147 5 139 1 139 9"/>
</svg>
