<?xml version="1.0" encoding="UTF-8"?>
<svg xmlns="http://www.w3.org/2000/svg" width="415" height="103">
   <defs>
      <style type="text/css">
    @namespace "http://www.w3.org/2000/svg";
    .line                 {fill: none; stroke: #332900; stroke-width: 1;}
    .bold-line            {stroke: #141000; shape-rendering: crispEdges; stroke-width: 2;}
    .thin-line            {stroke: #1F1800; shape-rendering: crispEdges}
    .filled               {fill: #332900; stroke: none;}
    text.terminal         {font-family: Verdana, Sans-serif;
                            font-size: 12px;
                            fill: #141000;
                            font-weight: bold;
                          }
    text.nonterminal      {font-family: Verdana, Sans-serif;
                            font-size: 12px;
                            fill: #1A1400;
                            font-weight: normal;
                          }
    text.regexp           {font-family: Verdana, Sans-serif;
                            font-size: 12px;
                            fill: #1F1800;
                            font-weight: normal;
                          }
    rect, circle, polygon {fill: #332900; stroke: #332900;}
    rect.terminal         {fill: #FFDB4D; stroke: #332900; stroke-width: 1;}
    rect.nonterminal      {fill: #FFEC9E; stroke: #332900; stroke-width: 1;}
    rect.text             {fill: none; stroke: none;}
    polygon.regexp        {fill: #FFF4C7; stroke: #332900; stroke-width: 1;}
  </style>
   </defs>
   <polygon points="9 51 1 47 1 55"/>
   <polygon points="17 51 9 47 9 55"/>
   <rect x="31" y="37" width="36" height="32" rx="10"/>
   <rect x="29"
         y="35"
         width="36"
         height="32"
         class="terminal"
         rx="10"/>
   <text class="terminal" x="39" y="55">//</text>
   <a xmlns:xlink="http://www.w3.org/1999/xlink"
      xlink:href="#comment_char"
      xlink:title="comment_char">
      <rect x="107" y="3" width="114" height="32"/>
      <rect x="105" y="1" width="114" height="32" class="nonterminal"/>
      <text class="nonterminal" x="115" y="21">comment_char</text>
   </a>
   <a xmlns:xlink="http://www.w3.org/1999/xlink"
      xlink:href="#line_break"
      xlink:title="line_break">
      <rect x="281" y="69" width="86" height="32"/>
      <rect x="279" y="67" width="86" height="32" class="nonterminal"/>
      <text class="nonterminal" x="289" y="87">line_break</text>
   </a>
   <path class="line"
         d="m17 51 h2 m0 0 h10 m36 0 h10 m20 0 h10 m0 0 h124 m-154 0 l20 0 m-1 0 q-9 0 -9 -10 l0 -14 q0 -10 10 -10 m134 34 l20 0 m-20 0 q10 0 10 -10 l0 -14 q0 -10 -10 -10 m-134 0 h10 m114 0 h10 m40 34 h10 m0 0 h96 m-126 0 h20 m106 0 h20 m-146 0 q10 0 10 10 m126 0 q0 -10 10 -10 m-136 10 v12 m126 0 v-12 m-126 12 q0 10 10 10 m106 0 q10 0 10 -10 m-116 10 h10 m86 0 h10 m23 -32 h-3"/>
   <polygon points="405 51 413 47 413 55"/>
   <polygon points="405 51 397 47 397 55"/>
</svg>
