<?xml version="1.0" encoding="UTF-8"?>
<svg xmlns="http://www.w3.org/2000/svg" width="239" height="145">
   <defs>
      <style type="text/css">
    @namespace "http://www.w3.org/2000/svg";
    .line                 {fill: none; stroke: #332900; stroke-width: 1;}
    .bold-line            {stroke: #141000; shape-rendering: crispEdges; stroke-width: 2;}
    .thin-line            {stroke: #1F1800; shape-rendering: crispEdges}
    .filled               {fill: #332900; stroke: none;}
    text.terminal         {font-family: Verdana, Sans-serif;
                            font-size: 12px;
                            fill: #141000;
                            font-weight: bold;
                          }
    text.nonterminal      {font-family: Verdana, Sans-serif;
                            font-size: 12px;
                            fill: #1A1400;
                            font-weight: normal;
                          }
    text.regexp           {font-family: Verdana, Sans-serif;
                            font-size: 12px;
                            fill: #1F1800;
                            font-weight: normal;
                          }
    rect, circle, polygon {fill: #332900; stroke: #332900;}
    rect.terminal         {fill: #FFDB4D; stroke: #332900; stroke-width: 1;}
    rect.nonterminal      {fill: #FFEC9E; stroke: #332900; stroke-width: 1;}
    rect.text             {fill: none; stroke: none;}
    polygon.regexp        {fill: #FFF4C7; stroke: #332900; stroke-width: 1;}
  </style>
   </defs>
   <polygon points="9 5 1 1 1 9"/>
   <polygon points="17 5 9 1 9 9"/>
   <polygon points="51 39 58 23 156 23 163 39 156 55 58 55"/>
   <polygon points="49 37 56 21 154 21 161 37 154 53 56 53" class="regexp"/>
   <text class="regexp" x="64" y="41">[#x00-#x09]</text>
   <polygon points="51 83 58 67 156 67 163 83 156 99 58 99"/>
   <polygon points="49 81 56 65 154 65 161 81 154 97 56 97" class="regexp"/>
   <text class="regexp" x="64" y="85">[#x0B-#x0C]</text>
   <polygon points="51 127 58 111 184 111 191 127 184 143 58 143"/>
   <polygon points="49 125 56 109 182 109 189 125 182 141 56 141" class="regexp"/>
   <text class="regexp" x="64" y="129">[#x0E-#x10FFFF]</text>
   <path class="line"
         d="m17 5 h2 m20 0 h10 m0 0 h150 m-180 0 h20 m160 0 h20 m-200 0 q10 0 10 10 m180 0 q0 -10 10 -10 m-190 10 v12 m180 0 v-12 m-180 12 q0 10 10 10 m160 0 q10 0 10 -10 m-170 10 h10 m112 0 h10 m0 0 h28 m-170 -10 v20 m180 0 v-20 m-180 20 v24 m180 0 v-24 m-180 24 q0 10 10 10 m160 0 q10 0 10 -10 m-170 10 h10 m112 0 h10 m0 0 h28 m-170 -10 v20 m180 0 v-20 m-180 20 v24 m180 0 v-24 m-180 24 q0 10 10 10 m160 0 q10 0 10 -10 m-170 10 h10 m140 0 h10 m23 -120 h-3"/>
   <polygon points="229 5 237 1 237 9"/>
   <polygon points="229 5 221 1 221 9"/>
</svg>
