<?xml version="1.0" encoding="UTF-8"?>
<svg xmlns="http://www.w3.org/2000/svg" width="501" height="69">
   <defs>
      <style type="text/css">
    @namespace "http://www.w3.org/2000/svg";
    .line                 {fill: none; stroke: #332900; stroke-width: 1;}
    .bold-line            {stroke: #141000; shape-rendering: crispEdges; stroke-width: 2;}
    .thin-line            {stroke: #1F1800; shape-rendering: crispEdges}
    .filled               {fill: #332900; stroke: none;}
    text.terminal         {font-family: Verdana, Sans-serif;
                            font-size: 12px;
                            fill: #141000;
                            font-weight: bold;
                          }
    text.nonterminal      {font-family: Verdana, Sans-serif;
                            font-size: 12px;
                            fill: #1A1400;
                            font-weight: normal;
                          }
    text.regexp           {font-family: Verdana, Sans-serif;
                            font-size: 12px;
                            fill: #1F1800;
                            font-weight: normal;
                          }
    rect, circle, polygon {fill: #332900; stroke: #332900;}
    rect.terminal         {fill: #FFDB4D; stroke: #332900; stroke-width: 1;}
    rect.nonterminal      {fill: #FFEC9E; stroke: #332900; stroke-width: 1;}
    rect.text             {fill: none; stroke: none;}
    polygon.regexp        {fill: #FFF4C7; stroke: #332900; stroke-width: 1;}
  </style>
   </defs>
   <polygon points="9 17 1 13 1 21"/>
   <polygon points="17 17 9 13 9 21"/>
   <a xmlns:xlink="http://www.w3.org/1999/xlink"
      xlink:href="#IDENT"
      xlink:title="IDENT">
      <rect x="31" y="3" width="58" height="32"/>
      <rect x="29" y="1" width="58" height="32" class="nonterminal"/>
      <text class="nonterminal" x="39" y="21">IDENT</text>
   </a>
   <rect x="109" y="3" width="30" height="32" rx="10"/>
   <rect x="107"
         y="1"
         width="30"
         height="32"
         class="terminal"
         rx="10"/>
   <text class="terminal" x="117" y="21">::</text>
   <a xmlns:xlink="http://www.w3.org/1999/xlink"
      xlink:href="#enum_variant_literal_typed"
      xlink:title="enum_variant_literal_typed">
      <rect x="179" y="35" width="196" height="32"/>
      <rect x="177" y="33" width="196" height="32" class="nonterminal"/>
      <text class="nonterminal" x="187" y="53">enum_variant_literal_typed</text>
   </a>
   <a xmlns:xlink="http://www.w3.org/1999/xlink"
      xlink:href="#IDENT"
      xlink:title="IDENT">
      <rect x="415" y="3" width="58" height="32"/>
      <rect x="413" y="1" width="58" height="32" class="nonterminal"/>
      <text class="nonterminal" x="423" y="21">IDENT</text>
   </a>
   <path class="line"
         d="m17 17 h2 m0 0 h10 m58 0 h10 m0 0 h10 m30 0 h10 m20 0 h10 m0 0 h206 m-236 0 h20 m216 0 h20 m-256 0 q10 0 10 10 m236 0 q0 -10 10 -10 m-246 10 v12 m236 0 v-12 m-236 12 q0 10 10 10 m216 0 q10 0 10 -10 m-226 10 h10 m196 0 h10 m20 -32 h10 m58 0 h10 m3 0 h-3"/>
   <polygon points="491 17 499 13 499 21"/>
   <polygon points="491 17 483 13 483 21"/>
</svg>
