<?xml version="1.0" encoding="UTF-8"?>
<svg xmlns="http://www.w3.org/2000/svg" width="583" height="69">
   <defs>
      <style type="text/css">
    @namespace "http://www.w3.org/2000/svg";
    .line                 {fill: none; stroke: #332900; stroke-width: 1;}
    .bold-line            {stroke: #141000; shape-rendering: crispEdges; stroke-width: 2;}
    .thin-line            {stroke: #1F1800; shape-rendering: crispEdges}
    .filled               {fill: #332900; stroke: none;}
    text.terminal         {font-family: Verdana, Sans-serif;
                            font-size: 12px;
                            fill: #141000;
                            font-weight: bold;
                          }
    text.nonterminal      {font-family: Verdana, Sans-serif;
                            font-size: 12px;
                            fill: #1A1400;
                            font-weight: normal;
                          }
    text.regexp           {font-family: Verdana, Sans-serif;
                            font-size: 12px;
                            fill: #1F1800;
                            font-weight: normal;
                          }
    rect, circle, polygon {fill: #332900; stroke: #332900;}
    rect.terminal         {fill: #FFDB4D; stroke: #332900; stroke-width: 1;}
    rect.nonterminal      {fill: #FFEC9E; stroke: #332900; stroke-width: 1;}
    rect.text             {fill: none; stroke: none;}
    polygon.regexp        {fill: #FFF4C7; stroke: #332900; stroke-width: 1;}
  </style>
   </defs>
   <polygon points="9 17 1 13 1 21"/>
   <polygon points="17 17 9 13 9 21"/>
   <rect x="31" y="3" width="58" height="32" rx="10"/>
   <rect x="29"
         y="1"
         width="58"
         height="32"
         class="terminal"
         rx="10"/>
   <text class="terminal" x="39" y="21">enum</text>
   <a xmlns:xlink="http://www.w3.org/1999/xlink"
      xlink:href="#enum_generics"
      xlink:title="enum_generics">
      <rect x="129" y="35" width="116" height="32"/>
      <rect x="127" y="33" width="116" height="32" class="nonterminal"/>
      <text class="nonterminal" x="137" y="53">enum_generics</text>
   </a>
   <rect x="285" y="3" width="28" height="32" rx="10"/>
   <rect x="283"
         y="1"
         width="28"
         height="32"
         class="terminal"
         rx="10"/>
   <text class="terminal" x="293" y="21">{</text>
   <a xmlns:xlink="http://www.w3.org/1999/xlink"
      xlink:href="#enum_variant_list"
      xlink:title="enum_variant_list">
      <rect x="353" y="35" width="134" height="32"/>
      <rect x="351" y="33" width="134" height="32" class="nonterminal"/>
      <text class="nonterminal" x="361" y="53">enum_variant_list</text>
   </a>
   <rect x="527" y="3" width="28" height="32" rx="10"/>
   <rect x="525"
         y="1"
         width="28"
         height="32"
         class="terminal"
         rx="10"/>
   <text class="terminal" x="535" y="21">}</text>
   <path class="line"
         d="m17 17 h2 m0 0 h10 m58 0 h10 m20 0 h10 m0 0 h126 m-156 0 h20 m136 0 h20 m-176 0 q10 0 10 10 m156 0 q0 -10 10 -10 m-166 10 v12 m156 0 v-12 m-156 12 q0 10 10 10 m136 0 q10 0 10 -10 m-146 10 h10 m116 0 h10 m20 -32 h10 m28 0 h10 m20 0 h10 m0 0 h144 m-174 0 h20 m154 0 h20 m-194 0 q10 0 10 10 m174 0 q0 -10 10 -10 m-184 10 v12 m174 0 v-12 m-174 12 q0 10 10 10 m154 0 q10 0 10 -10 m-164 10 h10 m134 0 h10 m20 -32 h10 m28 0 h10 m3 0 h-3"/>
   <polygon points="573 17 581 13 581 21"/>
   <polygon points="573 17 565 13 565 21"/>
</svg>
