<?xml version="1.0" encoding="UTF-8"?>
<svg xmlns="http://www.w3.org/2000/svg" width="745" height="69">
   <defs>
      <style type="text/css">
    @namespace "http://www.w3.org/2000/svg";
    .line                 {fill: none; stroke: #332900; stroke-width: 1;}
    .bold-line            {stroke: #141000; shape-rendering: crispEdges; stroke-width: 2;}
    .thin-line            {stroke: #1F1800; shape-rendering: crispEdges}
    .filled               {fill: #332900; stroke: none;}
    text.terminal         {font-family: Verdana, Sans-serif;
                            font-size: 12px;
                            fill: #141000;
                            font-weight: bold;
                          }
    text.nonterminal      {font-family: Verdana, Sans-serif;
                            font-size: 12px;
                            fill: #1A1400;
                            font-weight: normal;
                          }
    text.regexp           {font-family: Verdana, Sans-serif;
                            font-size: 12px;
                            fill: #1F1800;
                            font-weight: normal;
                          }
    rect, circle, polygon {fill: #332900; stroke: #332900;}
    rect.terminal         {fill: #FFDB4D; stroke: #332900; stroke-width: 1;}
    rect.nonterminal      {fill: #FFEC9E; stroke: #332900; stroke-width: 1;}
    rect.text             {fill: none; stroke: none;}
    polygon.regexp        {fill: #FFF4C7; stroke: #332900; stroke-width: 1;}
  </style>
   </defs>
   <polygon points="9 17 1 13 1 21"/>
   <polygon points="17 17 9 13 9 21"/>
   <rect x="51" y="35" width="44" height="32" rx="10"/>
   <rect x="49"
         y="33"
         width="44"
         height="32"
         class="terminal"
         rx="10"/>
   <text class="terminal" x="59" y="53">pub</text>
   <a xmlns:xlink="http://www.w3.org/1999/xlink"
      xlink:href="#fn_purity"
      xlink:title="fn_purity">
      <rect x="135" y="3" width="76" height="32"/>
      <rect x="133" y="1" width="76" height="32" class="nonterminal"/>
      <text class="nonterminal" x="143" y="21">fn_purity</text>
   </a>
   <rect x="231" y="3" width="34" height="32" rx="10"/>
   <rect x="229"
         y="1"
         width="34"
         height="32"
         class="terminal"
         rx="10"/>
   <text class="terminal" x="239" y="21">fn</text>
   <a xmlns:xlink="http://www.w3.org/1999/xlink"
      xlink:href="#IDENT"
      xlink:title="IDENT">
      <rect x="285" y="3" width="58" height="32"/>
      <rect x="283" y="1" width="58" height="32" class="nonterminal"/>
      <text class="nonterminal" x="293" y="21">IDENT</text>
   </a>
   <rect x="363" y="3" width="26" height="32" rx="10"/>
   <rect x="361"
         y="1"
         width="26"
         height="32"
         class="terminal"
         rx="10"/>
   <text class="terminal" x="371" y="21">(</text>
   <a xmlns:xlink="http://www.w3.org/1999/xlink"
      xlink:href="#params"
      xlink:title="params">
      <rect x="429" y="35" width="68" height="32"/>
      <rect x="427" y="33" width="68" height="32" class="nonterminal"/>
      <text class="nonterminal" x="437" y="53">params</text>
   </a>
   <rect x="537" y="3" width="26" height="32" rx="10"/>
   <rect x="535"
         y="1"
         width="26"
         height="32"
         class="terminal"
         rx="10"/>
   <text class="terminal" x="545" y="21">)</text>
   <a xmlns:xlink="http://www.w3.org/1999/xlink"
      xlink:href="#return_type"
      xlink:title="return_type">
      <rect x="603" y="35" width="94" height="32"/>
      <rect x="601" y="33" width="94" height="32" class="nonterminal"/>
      <text class="nonterminal" x="611" y="53">return_type</text>
   </a>
   <path class="line"
         d="m17 17 h2 m20 0 h10 m0 0 h54 m-84 0 h20 m64 0 h20 m-104 0 q10 0 10 10 m84 0 q0 -10 10 -10 m-94 10 v12 m84 0 v-12 m-84 12 q0 10 10 10 m64 0 q10 0 10 -10 m-74 10 h10 m44 0 h10 m20 -32 h10 m76 0 h10 m0 0 h10 m34 0 h10 m0 0 h10 m58 0 h10 m0 0 h10 m26 0 h10 m20 0 h10 m0 0 h78 m-108 0 h20 m88 0 h20 m-128 0 q10 0 10 10 m108 0 q0 -10 10 -10 m-118 10 v12 m108 0 v-12 m-108 12 q0 10 10 10 m88 0 q10 0 10 -10 m-98 10 h10 m68 0 h10 m20 -32 h10 m26 0 h10 m20 0 h10 m0 0 h104 m-134 0 h20 m114 0 h20 m-154 0 q10 0 10 10 m134 0 q0 -10 10 -10 m-144 10 v12 m134 0 v-12 m-134 12 q0 10 10 10 m114 0 q10 0 10 -10 m-124 10 h10 m94 0 h10 m23 -32 h-3"/>
   <polygon points="735 17 743 13 743 21"/>
   <polygon points="735 17 727 13 727 21"/>
</svg>
