<?xml version="1.0" encoding="UTF-8"?>
<svg xmlns="http://www.w3.org/2000/svg" width="609" height="87">
   <defs>
      <style type="text/css">
    @namespace "http://www.w3.org/2000/svg";
    .line                 {fill: none; stroke: #332900; stroke-width: 1;}
    .bold-line            {stroke: #141000; shape-rendering: crispEdges; stroke-width: 2;}
    .thin-line            {stroke: #1F1800; shape-rendering: crispEdges}
    .filled               {fill: #332900; stroke: none;}
    text.terminal         {font-family: Verdana, Sans-serif;
                            font-size: 12px;
                            fill: #141000;
                            font-weight: bold;
                          }
    text.nonterminal      {font-family: Verdana, Sans-serif;
                            font-size: 12px;
                            fill: #1A1400;
                            font-weight: normal;
                          }
    text.regexp           {font-family: Verdana, Sans-serif;
                            font-size: 12px;
                            fill: #1F1800;
                            font-weight: normal;
                          }
    rect, circle, polygon {fill: #332900; stroke: #332900;}
    rect.terminal         {fill: #FFDB4D; stroke: #332900; stroke-width: 1;}
    rect.nonterminal      {fill: #FFEC9E; stroke: #332900; stroke-width: 1;}
    rect.text             {fill: none; stroke: none;}
    polygon.regexp        {fill: #FFF4C7; stroke: #332900; stroke-width: 1;}
  </style>
   </defs>
   <polygon points="9 51 1 47 1 55"/>
   <polygon points="17 51 9 47 9 55"/>
   <a xmlns:xlink="http://www.w3.org/1999/xlink"
      xlink:href="#IDENT_START"
      xlink:title="IDENT_START">
      <rect x="31" y="37" width="104" height="32"/>
      <rect x="29" y="35" width="104" height="32" class="nonterminal"/>
      <text class="nonterminal" x="39" y="55">IDENT_START</text>
   </a>
   <a xmlns:xlink="http://www.w3.org/1999/xlink"
      xlink:href="#IDENT_CONT"
      xlink:title="IDENT_CONT">
      <rect x="175" y="3" width="100" height="32"/>
      <rect x="173" y="1" width="100" height="32" class="nonterminal"/>
      <text class="nonterminal" x="183" y="21">IDENT_CONT</text>
   </a>
   <rect x="355" y="37" width="26" height="32" rx="10"/>
   <rect x="353"
         y="35"
         width="26"
         height="32"
         class="terminal"
         rx="10"/>
   <text class="terminal" x="363" y="55">-</text>
   <a xmlns:xlink="http://www.w3.org/1999/xlink"
      xlink:href="#IDENT_CONT"
      xlink:title="IDENT_CONT">
      <rect x="421" y="37" width="100" height="32"/>
      <rect x="419" y="35" width="100" height="32" class="nonterminal"/>
      <text class="nonterminal" x="429" y="55">IDENT_CONT</text>
   </a>
   <path class="line"
         d="m17 51 h2 m0 0 h10 m104 0 h10 m20 0 h10 m0 0 h110 m-140 0 l20 0 m-1 0 q-9 0 -9 -10 l0 -14 q0 -10 10 -10 m120 34 l20 0 m-20 0 q10 0 10 -10 l0 -14 q0 -10 -10 -10 m-120 0 h10 m100 0 h10 m60 34 h10 m26 0 h10 m20 0 h10 m100 0 h10 m-140 0 l20 0 m-1 0 q-9 0 -9 -10 l0 -12 q0 -10 10 -10 m120 32 l20 0 m-20 0 q10 0 10 -10 l0 -12 q0 -10 -10 -10 m-120 0 h10 m0 0 h110 m-206 32 l20 0 m-1 0 q-9 0 -9 -10 l0 -28 q0 -10 10 -10 m206 48 l20 0 m-20 0 q10 0 10 -10 l0 -28 q0 -10 -10 -10 m-206 0 h10 m0 0 h196 m-246 48 h20 m246 0 h20 m-286 0 q10 0 10 10 m266 0 q0 -10 10 -10 m-276 10 v14 m266 0 v-14 m-266 14 q0 10 10 10 m246 0 q10 0 10 -10 m-256 10 h10 m0 0 h236 m23 -34 h-3"/>
   <polygon points="599 51 607 47 607 55"/>
   <polygon points="599 51 591 47 591 55"/>
</svg>
