<?xml version="1.0" encoding="UTF-8"?>
<svg xmlns="http://www.w3.org/2000/svg" width="383" height="135">
   <defs>
      <style type="text/css">
    @namespace "http://www.w3.org/2000/svg";
    .line                 {fill: none; stroke: #332900; stroke-width: 1;}
    .bold-line            {stroke: #141000; shape-rendering: crispEdges; stroke-width: 2;}
    .thin-line            {stroke: #1F1800; shape-rendering: crispEdges}
    .filled               {fill: #332900; stroke: none;}
    text.terminal         {font-family: Verdana, Sans-serif;
                            font-size: 12px;
                            fill: #141000;
                            font-weight: bold;
                          }
    text.nonterminal      {font-family: Verdana, Sans-serif;
                            font-size: 12px;
                            fill: #1A1400;
                            font-weight: normal;
                          }
    text.regexp           {font-family: Verdana, Sans-serif;
                            font-size: 12px;
                            fill: #1F1800;
                            font-weight: normal;
                          }
    rect, circle, polygon {fill: #332900; stroke: #332900;}
    rect.terminal         {fill: #FFDB4D; stroke: #332900; stroke-width: 1;}
    rect.nonterminal      {fill: #FFEC9E; stroke: #332900; stroke-width: 1;}
    rect.text             {fill: none; stroke: none;}
    polygon.regexp        {fill: #FFF4C7; stroke: #332900; stroke-width: 1;}
  </style>
   </defs>
   <polygon points="9 17 1 13 1 21"/>
   <polygon points="17 17 9 13 9 21"/>
   <a xmlns:xlink="http://www.w3.org/1999/xlink"
      xlink:href="#expr"
      xlink:title="expr">
      <rect x="31" y="3" width="48" height="32"/>
      <rect x="29" y="1" width="48" height="32" class="nonterminal"/>
      <text class="nonterminal" x="39" y="21">expr</text>
   </a>
   <rect x="119" y="3" width="24" height="32" rx="10"/>
   <rect x="117"
         y="1"
         width="24"
         height="32"
         class="terminal"
         rx="10"/>
   <text class="terminal" x="127" y="21">,</text>
   <rect x="139" y="69" width="24" height="32" rx="10"/>
   <rect x="137"
         y="67"
         width="24"
         height="32"
         class="terminal"
         rx="10"/>
   <text class="terminal" x="147" y="87">,</text>
   <a xmlns:xlink="http://www.w3.org/1999/xlink"
      xlink:href="#expr"
      xlink:title="expr">
      <rect x="183" y="69" width="48" height="32"/>
      <rect x="181" y="67" width="48" height="32" class="nonterminal"/>
      <text class="nonterminal" x="191" y="87">expr</text>
   </a>
   <rect x="291" y="101" width="24" height="32" rx="10"/>
   <rect x="289"
         y="99"
         width="24"
         height="32"
         class="terminal"
         rx="10"/>
   <text class="terminal" x="299" y="119">,</text>
   <path class="line"
         d="m17 17 h2 m0 0 h10 m48 0 h10 m20 0 h10 m24 0 h10 m0 0 h192 m-256 0 h20 m236 0 h20 m-276 0 q10 0 10 10 m256 0 q0 -10 10 -10 m-266 10 v46 m256 0 v-46 m-256 46 q0 10 10 10 m236 0 q10 0 10 -10 m-226 10 h10 m24 0 h10 m0 0 h10 m48 0 h10 m-132 0 l20 0 m-1 0 q-9 0 -9 -10 l0 -12 q0 -10 10 -10 m112 32 l20 0 m-20 0 q10 0 10 -10 l0 -12 q0 -10 -10 -10 m-112 0 h10 m0 0 h102 m40 32 h10 m0 0 h34 m-64 0 h20 m44 0 h20 m-84 0 q10 0 10 10 m64 0 q0 -10 10 -10 m-74 10 v12 m64 0 v-12 m-64 12 q0 10 10 10 m44 0 q10 0 10 -10 m-54 10 h10 m24 0 h10 m43 -98 h-3"/>
   <polygon points="373 17 381 13 381 21"/>
   <polygon points="373 17 365 13 365 21"/>
</svg>
