<?xml version="1.0" encoding="UTF-8"?>
<svg xmlns="http://www.w3.org/2000/svg" width="307" height="113">
   <defs>
      <style type="text/css">
    @namespace "http://www.w3.org/2000/svg";
    .line                 {fill: none; stroke: #332900; stroke-width: 1;}
    .bold-line            {stroke: #141000; shape-rendering: crispEdges; stroke-width: 2;}
    .thin-line            {stroke: #1F1800; shape-rendering: crispEdges}
    .filled               {fill: #332900; stroke: none;}
    text.terminal         {font-family: Verdana, Sans-serif;
                            font-size: 12px;
                            fill: #141000;
                            font-weight: bold;
                          }
    text.nonterminal      {font-family: Verdana, Sans-serif;
                            font-size: 12px;
                            fill: #1A1400;
                            font-weight: normal;
                          }
    text.regexp           {font-family: Verdana, Sans-serif;
                            font-size: 12px;
                            fill: #1F1800;
                            font-weight: normal;
                          }
    rect, circle, polygon {fill: #332900; stroke: #332900;}
    rect.terminal         {fill: #FFDB4D; stroke: #332900; stroke-width: 1;}
    rect.nonterminal      {fill: #FFEC9E; stroke: #332900; stroke-width: 1;}
    rect.text             {fill: none; stroke: none;}
    polygon.regexp        {fill: #FFF4C7; stroke: #332900; stroke-width: 1;}
  </style>
   </defs>
   <polygon points="9 17 1 13 1 21"/>
   <polygon points="17 17 9 13 9 21"/>
   <polygon points="51 19 58 3 118 3 125 19 118 35 58 35"/>
   <polygon points="49 17 56 1 116 1 123 17 116 33 56 33" class="regexp"/>
   <text class="regexp" x="64" y="21">[#x0D]</text>
   <polygon points="165 51 172 35 232 35 239 51 232 67 172 67"/>
   <polygon points="163 49 170 33 230 33 237 49 230 65 170 65" class="regexp"/>
   <text class="regexp" x="178" y="53">[#x0A]</text>
   <polygon points="51 95 58 79 118 79 125 95 118 111 58 111"/>
   <polygon points="49 93 56 77 116 77 123 93 116 109 56 109" class="regexp"/>
   <text class="regexp" x="64" y="97">[#x0A]</text>
   <path class="line"
         d="m17 17 h2 m20 0 h10 m74 0 h10 m20 0 h10 m0 0 h84 m-114 0 h20 m94 0 h20 m-134 0 q10 0 10 10 m114 0 q0 -10 10 -10 m-124 10 v12 m114 0 v-12 m-114 12 q0 10 10 10 m94 0 q10 0 10 -10 m-104 10 h10 m74 0 h10 m-228 -32 h20 m228 0 h20 m-268 0 q10 0 10 10 m248 0 q0 -10 10 -10 m-258 10 v56 m248 0 v-56 m-248 56 q0 10 10 10 m228 0 q10 0 10 -10 m-238 10 h10 m74 0 h10 m0 0 h134 m23 -76 h-3"/>
   <polygon points="297 17 305 13 305 21"/>
   <polygon points="297 17 289 13 289 21"/>
</svg>
