<?xml version="1.0" encoding="UTF-8"?>
<svg xmlns="http://www.w3.org/2000/svg" width="187" height="389">
   <defs>
      <style type="text/css">
    @namespace "http://www.w3.org/2000/svg";
    .line                 {fill: none; stroke: #332900; stroke-width: 1;}
    .bold-line            {stroke: #141000; shape-rendering: crispEdges; stroke-width: 2;}
    .thin-line            {stroke: #1F1800; shape-rendering: crispEdges}
    .filled               {fill: #332900; stroke: none;}
    text.terminal         {font-family: Verdana, Sans-serif;
                            font-size: 12px;
                            fill: #141000;
                            font-weight: bold;
                          }
    text.nonterminal      {font-family: Verdana, Sans-serif;
                            font-size: 12px;
                            fill: #1A1400;
                            font-weight: normal;
                          }
    text.regexp           {font-family: Verdana, Sans-serif;
                            font-size: 12px;
                            fill: #1F1800;
                            font-weight: normal;
                          }
    rect, circle, polygon {fill: #332900; stroke: #332900;}
    rect.terminal         {fill: #FFDB4D; stroke: #332900; stroke-width: 1;}
    rect.nonterminal      {fill: #FFEC9E; stroke: #332900; stroke-width: 1;}
    rect.text             {fill: none; stroke: none;}
    polygon.regexp        {fill: #FFF4C7; stroke: #332900; stroke-width: 1;}
  </style>
   </defs>
   <polygon points="9 17 1 13 1 21"/>
   <polygon points="17 17 9 13 9 21"/>
   <a xmlns:xlink="http://www.w3.org/1999/xlink"
      xlink:href="#HEX"
      xlink:title="HEX">
      <rect x="51" y="3" width="44" height="32"/>
      <rect x="49" y="1" width="44" height="32" class="nonterminal"/>
      <text class="nonterminal" x="59" y="21">HEX</text>
   </a>
   <a xmlns:xlink="http://www.w3.org/1999/xlink"
      xlink:href="#OCT"
      xlink:title="OCT">
      <rect x="51" y="47" width="44" height="32"/>
      <rect x="49" y="45" width="44" height="32" class="nonterminal"/>
      <text class="nonterminal" x="59" y="65">OCT</text>
   </a>
   <a xmlns:xlink="http://www.w3.org/1999/xlink"
      xlink:href="#BIN"
      xlink:title="BIN">
      <rect x="51" y="91" width="42" height="32"/>
      <rect x="49" y="89" width="42" height="32" class="nonterminal"/>
      <text class="nonterminal" x="59" y="109">BIN</text>
   </a>
   <a xmlns:xlink="http://www.w3.org/1999/xlink"
      xlink:href="#INT"
      xlink:title="INT">
      <rect x="51" y="135" width="40" height="32"/>
      <rect x="49" y="133" width="40" height="32" class="nonterminal"/>
      <text class="nonterminal" x="59" y="153">INT</text>
   </a>
   <a xmlns:xlink="http://www.w3.org/1999/xlink"
      xlink:href="#FLOAT"
      xlink:title="FLOAT">
      <rect x="51" y="179" width="58" height="32"/>
      <rect x="49" y="177" width="58" height="32" class="nonterminal"/>
      <text class="nonterminal" x="59" y="197">FLOAT</text>
   </a>
   <a xmlns:xlink="http://www.w3.org/1999/xlink"
      xlink:href="#STRING"
      xlink:title="STRING">
      <rect x="51" y="223" width="66" height="32"/>
      <rect x="49" y="221" width="66" height="32" class="nonterminal"/>
      <text class="nonterminal" x="59" y="241">STRING</text>
   </a>
   <a xmlns:xlink="http://www.w3.org/1999/xlink"
      xlink:href="#CHAR"
      xlink:title="CHAR">
      <rect x="51" y="267" width="54" height="32"/>
      <rect x="49" y="265" width="54" height="32" class="nonterminal"/>
      <text class="nonterminal" x="59" y="285">CHAR</text>
   </a>
   <a xmlns:xlink="http://www.w3.org/1999/xlink"
      xlink:href="#mat_literal"
      xlink:title="mat_literal">
      <rect x="51" y="311" width="88" height="32"/>
      <rect x="49" y="309" width="88" height="32" class="nonterminal"/>
      <text class="nonterminal" x="59" y="329">mat_literal</text>
   </a>
   <a xmlns:xlink="http://www.w3.org/1999/xlink"
      xlink:href="#vec_literal"
      xlink:title="vec_literal">
      <rect x="51" y="355" width="84" height="32"/>
      <rect x="49" y="353" width="84" height="32" class="nonterminal"/>
      <text class="nonterminal" x="59" y="373">vec_literal</text>
   </a>
   <path class="line"
         d="m17 17 h2 m20 0 h10 m44 0 h10 m0 0 h44 m-128 0 h20 m108 0 h20 m-148 0 q10 0 10 10 m128 0 q0 -10 10 -10 m-138 10 v24 m128 0 v-24 m-128 24 q0 10 10 10 m108 0 q10 0 10 -10 m-118 10 h10 m44 0 h10 m0 0 h44 m-118 -10 v20 m128 0 v-20 m-128 20 v24 m128 0 v-24 m-128 24 q0 10 10 10 m108 0 q10 0 10 -10 m-118 10 h10 m42 0 h10 m0 0 h46 m-118 -10 v20 m128 0 v-20 m-128 20 v24 m128 0 v-24 m-128 24 q0 10 10 10 m108 0 q10 0 10 -10 m-118 10 h10 m40 0 h10 m0 0 h48 m-118 -10 v20 m128 0 v-20 m-128 20 v24 m128 0 v-24 m-128 24 q0 10 10 10 m108 0 q10 0 10 -10 m-118 10 h10 m58 0 h10 m0 0 h30 m-118 -10 v20 m128 0 v-20 m-128 20 v24 m128 0 v-24 m-128 24 q0 10 10 10 m108 0 q10 0 10 -10 m-118 10 h10 m66 0 h10 m0 0 h22 m-118 -10 v20 m128 0 v-20 m-128 20 v24 m128 0 v-24 m-128 24 q0 10 10 10 m108 0 q10 0 10 -10 m-118 10 h10 m54 0 h10 m0 0 h34 m-118 -10 v20 m128 0 v-20 m-128 20 v24 m128 0 v-24 m-128 24 q0 10 10 10 m108 0 q10 0 10 -10 m-118 10 h10 m88 0 h10 m-118 -10 v20 m128 0 v-20 m-128 20 v24 m128 0 v-24 m-128 24 q0 10 10 10 m108 0 q10 0 10 -10 m-118 10 h10 m84 0 h10 m0 0 h4 m23 -352 h-3"/>
   <polygon points="177 17 185 13 185 21"/>
   <polygon points="177 17 169 13 169 21"/>
</svg>
