<?xml version="1.0" encoding="UTF-8"?>
<svg xmlns="http://www.w3.org/2000/svg" width="681" height="119">
   <defs>
      <style type="text/css">
    @namespace "http://www.w3.org/2000/svg";
    .line                 {fill: none; stroke: #332900; stroke-width: 1;}
    .bold-line            {stroke: #141000; shape-rendering: crispEdges; stroke-width: 2;}
    .thin-line            {stroke: #1F1800; shape-rendering: crispEdges}
    .filled               {fill: #332900; stroke: none;}
    text.terminal         {font-family: Verdana, Sans-serif;
                            font-size: 12px;
                            fill: #141000;
                            font-weight: bold;
                          }
    text.nonterminal      {font-family: Verdana, Sans-serif;
                            font-size: 12px;
                            fill: #1A1400;
                            font-weight: normal;
                          }
    text.regexp           {font-family: Verdana, Sans-serif;
                            font-size: 12px;
                            fill: #1F1800;
                            font-weight: normal;
                          }
    rect, circle, polygon {fill: #332900; stroke: #332900;}
    rect.terminal         {fill: #FFDB4D; stroke: #332900; stroke-width: 1;}
    rect.nonterminal      {fill: #FFEC9E; stroke: #332900; stroke-width: 1;}
    rect.text             {fill: none; stroke: none;}
    polygon.regexp        {fill: #FFF4C7; stroke: #332900; stroke-width: 1;}
  </style>
   </defs>
   <polygon points="9 51 1 47 1 55"/>
   <polygon points="17 51 9 47 9 55"/>
   <a xmlns:xlink="http://www.w3.org/1999/xlink"
      xlink:href="#f"
      xlink:title="f">
      <rect x="71" y="69" width="24" height="32"/>
      <rect x="69" y="67" width="24" height="32" class="nonterminal"/>
      <text class="nonterminal" x="79" y="87">f</text>
   </a>
   <a xmlns:xlink="http://www.w3.org/1999/xlink"
      xlink:href="#mat"
      xlink:title="mat">
      <rect x="135" y="37" width="44" height="32"/>
      <rect x="133" y="35" width="44" height="32" class="nonterminal"/>
      <text class="nonterminal" x="143" y="55">mat</text>
   </a>
   <polygon points="199 53 206 37 254 37 261 53 254 69 206 69"/>
   <polygon points="197 51 204 35 252 35 259 51 252 67 204 67" class="regexp"/>
   <text class="regexp" x="212" y="55">[1-9]</text>
   <polygon points="301 19 308 3 356 3 363 19 356 35 308 35"/>
   <polygon points="299 17 306 1 354 1 361 17 354 33 306 33" class="regexp"/>
   <text class="regexp" x="314" y="21">[0-9]</text>
   <a xmlns:xlink="http://www.w3.org/1999/xlink"
      xlink:href="#x"
      xlink:title="x">
      <rect x="403" y="37" width="26" height="32"/>
      <rect x="401" y="35" width="26" height="32" class="nonterminal"/>
      <text class="nonterminal" x="411" y="55">x</text>
   </a>
   <polygon points="449 53 456 37 504 37 511 53 504 69 456 69"/>
   <polygon points="447 51 454 35 502 35 509 51 502 67 454 67" class="regexp"/>
   <text class="regexp" x="462" y="55">[1-9]</text>
   <polygon points="551 19 558 3 606 3 613 19 606 35 558 35"/>
   <polygon points="549 17 556 1 604 1 611 17 604 33 556 33" class="regexp"/>
   <text class="regexp" x="564" y="21">[0-9]</text>
   <path class="line"
         d="m17 51 h2 m40 0 h10 m0 0 h34 m-64 0 h20 m44 0 h20 m-84 0 q10 0 10 10 m64 0 q0 -10 10 -10 m-74 10 v12 m64 0 v-12 m-64 12 q0 10 10 10 m44 0 q10 0 10 -10 m-54 10 h10 m24 0 h10 m20 -32 h10 m44 0 h10 m0 0 h10 m62 0 h10 m20 0 h10 m0 0 h72 m-102 0 l20 0 m-1 0 q-9 0 -9 -10 l0 -14 q0 -10 10 -10 m82 34 l20 0 m-20 0 q10 0 10 -10 l0 -14 q0 -10 -10 -10 m-82 0 h10 m62 0 h10 m20 34 h10 m26 0 h10 m0 0 h10 m62 0 h10 m20 0 h10 m0 0 h72 m-102 0 l20 0 m-1 0 q-9 0 -9 -10 l0 -14 q0 -10 10 -10 m82 34 l20 0 m-20 0 q10 0 10 -10 l0 -14 q0 -10 -10 -10 m-82 0 h10 m62 0 h10 m-602 34 h20 m602 0 h20 m-642 0 q10 0 10 10 m622 0 q0 -10 10 -10 m-632 10 v46 m622 0 v-46 m-622 46 q0 10 10 10 m602 0 q10 0 10 -10 m-612 10 h10 m0 0 h592 m23 -66 h-3"/>
   <polygon points="671 51 679 47 679 55"/>
   <polygon points="671 51 663 47 663 55"/>
</svg>
