<?xml version="1.0" encoding="UTF-8"?>
<svg xmlns="http://www.w3.org/2000/svg" width="437" height="53">
   <defs>
      <style type="text/css">
    @namespace "http://www.w3.org/2000/svg";
    .line                 {fill: none; stroke: #332900; stroke-width: 1;}
    .bold-line            {stroke: #141000; shape-rendering: crispEdges; stroke-width: 2;}
    .thin-line            {stroke: #1F1800; shape-rendering: crispEdges}
    .filled               {fill: #332900; stroke: none;}
    text.terminal         {font-family: Verdana, Sans-serif;
                            font-size: 12px;
                            fill: #141000;
                            font-weight: bold;
                          }
    text.nonterminal      {font-family: Verdana, Sans-serif;
                            font-size: 12px;
                            fill: #1A1400;
                            font-weight: normal;
                          }
    text.regexp           {font-family: Verdana, Sans-serif;
                            font-size: 12px;
                            fill: #1F1800;
                            font-weight: normal;
                          }
    rect, circle, polygon {fill: #332900; stroke: #332900;}
    rect.terminal         {fill: #FFDB4D; stroke: #332900; stroke-width: 1;}
    rect.nonterminal      {fill: #FFEC9E; stroke: #332900; stroke-width: 1;}
    rect.text             {fill: none; stroke: none;}
    polygon.regexp        {fill: #FFF4C7; stroke: #332900; stroke-width: 1;}
  </style>
   </defs>
   <polygon points="9 33 1 29 1 37"/>
   <polygon points="17 33 9 29 9 37"/>
   <rect x="31" y="19" width="62" height="32" rx="10"/>
   <rect x="29"
         y="17"
         width="62"
         height="32"
         class="terminal"
         rx="10"/>
   <text class="terminal" x="39" y="37">match</text>
   <a xmlns:xlink="http://www.w3.org/1999/xlink"
      xlink:href="#expr"
      xlink:title="expr">
      <rect x="113" y="19" width="48" height="32"/>
      <rect x="111" y="17" width="48" height="32" class="nonterminal"/>
      <text class="nonterminal" x="121" y="37">expr</text>
   </a>
   <rect x="181" y="19" width="28" height="32" rx="10"/>
   <rect x="179"
         y="17"
         width="28"
         height="32"
         class="terminal"
         rx="10"/>
   <text class="terminal" x="189" y="37">{</text>
   <a xmlns:xlink="http://www.w3.org/1999/xlink"
      xlink:href="#match_arm"
      xlink:title="match_arm">
      <rect x="249" y="19" width="92" height="32"/>
      <rect x="247" y="17" width="92" height="32" class="nonterminal"/>
      <text class="nonterminal" x="257" y="37">match_arm</text>
   </a>
   <rect x="381" y="19" width="28" height="32" rx="10"/>
   <rect x="379"
         y="17"
         width="28"
         height="32"
         class="terminal"
         rx="10"/>
   <text class="terminal" x="389" y="37">}</text>
   <path class="line"
         d="m17 33 h2 m0 0 h10 m62 0 h10 m0 0 h10 m48 0 h10 m0 0 h10 m28 0 h10 m20 0 h10 m92 0 h10 m-132 0 l20 0 m-1 0 q-9 0 -9 -10 l0 -12 q0 -10 10 -10 m112 32 l20 0 m-20 0 q10 0 10 -10 l0 -12 q0 -10 -10 -10 m-112 0 h10 m0 0 h102 m20 32 h10 m28 0 h10 m3 0 h-3"/>
   <polygon points="427 33 435 29 435 37"/>
   <polygon points="427 33 419 29 419 37"/>
</svg>
