<?xml version="1.0" encoding="UTF-8"?>
<svg xmlns="http://www.w3.org/2000/svg" width="331" height="157">
   <defs>
      <style type="text/css">
    @namespace "http://www.w3.org/2000/svg";
    .line                 {fill: none; stroke: #332900; stroke-width: 1;}
    .bold-line            {stroke: #141000; shape-rendering: crispEdges; stroke-width: 2;}
    .thin-line            {stroke: #1F1800; shape-rendering: crispEdges}
    .filled               {fill: #332900; stroke: none;}
    text.terminal         {font-family: Verdana, Sans-serif;
                            font-size: 12px;
                            fill: #141000;
                            font-weight: bold;
                          }
    text.nonterminal      {font-family: Verdana, Sans-serif;
                            font-size: 12px;
                            fill: #1A1400;
                            font-weight: normal;
                          }
    text.regexp           {font-family: Verdana, Sans-serif;
                            font-size: 12px;
                            fill: #1F1800;
                            font-weight: normal;
                          }
    rect, circle, polygon {fill: #332900; stroke: #332900;}
    rect.terminal         {fill: #FFDB4D; stroke: #332900; stroke-width: 1;}
    rect.nonterminal      {fill: #FFEC9E; stroke: #332900; stroke-width: 1;}
    rect.text             {fill: none; stroke: none;}
    polygon.regexp        {fill: #FFF4C7; stroke: #332900; stroke-width: 1;}
  </style>
   </defs>
   <polygon points="9 61 1 57 1 65"/>
   <polygon points="17 61 9 57 9 65"/>
   <a xmlns:xlink="http://www.w3.org/1999/xlink"
      xlink:href="#param"
      xlink:title="param">
      <rect x="71" y="47" width="60" height="32"/>
      <rect x="69" y="45" width="60" height="32" class="nonterminal"/>
      <text class="nonterminal" x="79" y="65">param</text>
   </a>
   <rect x="71" y="3" width="24" height="32" rx="10"/>
   <rect x="69"
         y="1"
         width="24"
         height="32"
         class="terminal"
         rx="10"/>
   <text class="terminal" x="79" y="21">,</text>
   <rect x="191" y="79" width="24" height="32" rx="10"/>
   <rect x="189"
         y="77"
         width="24"
         height="32"
         class="terminal"
         rx="10"/>
   <text class="terminal" x="199" y="97">,</text>
   <rect x="235" y="79" width="28" height="32" rx="10"/>
   <rect x="233"
         y="77"
         width="28"
         height="32"
         class="terminal"
         rx="10"/>
   <text class="terminal" x="243" y="97">*</text>
   <rect x="51" y="123" width="28" height="32" rx="10"/>
   <rect x="49"
         y="121"
         width="28"
         height="32"
         class="terminal"
         rx="10"/>
   <text class="terminal" x="59" y="141">*</text>
   <path class="line"
         d="m17 61 h2 m40 0 h10 m60 0 h10 m-100 0 l20 0 m-1 0 q-9 0 -9 -10 l0 -24 q0 -10 10 -10 m80 44 l20 0 m-20 0 q10 0 10 -10 l0 -24 q0 -10 -10 -10 m-80 0 h10 m24 0 h10 m0 0 h36 m40 44 h10 m0 0 h82 m-112 0 h20 m92 0 h20 m-132 0 q10 0 10 10 m112 0 q0 -10 10 -10 m-122 10 v12 m112 0 v-12 m-112 12 q0 10 10 10 m92 0 q10 0 10 -10 m-102 10 h10 m24 0 h10 m0 0 h10 m28 0 h10 m-252 -32 h20 m252 0 h20 m-292 0 q10 0 10 10 m272 0 q0 -10 10 -10 m-282 10 v56 m272 0 v-56 m-272 56 q0 10 10 10 m252 0 q10 0 10 -10 m-262 10 h10 m28 0 h10 m0 0 h204 m23 -76 h-3"/>
   <polygon points="321 61 329 57 329 65"/>
   <polygon points="321 61 313 57 313 65"/>
</svg>
