<?xml version="1.0" encoding="UTF-8"?>
<svg xmlns="http://www.w3.org/2000/svg" width="547" height="531">
   <defs>
      <style type="text/css">
    @namespace "http://www.w3.org/2000/svg";
    .line                 {fill: none; stroke: #332900; stroke-width: 1;}
    .bold-line            {stroke: #141000; shape-rendering: crispEdges; stroke-width: 2;}
    .thin-line            {stroke: #1F1800; shape-rendering: crispEdges}
    .filled               {fill: #332900; stroke: none;}
    text.terminal         {font-family: Verdana, Sans-serif;
                            font-size: 12px;
                            fill: #141000;
                            font-weight: bold;
                          }
    text.nonterminal      {font-family: Verdana, Sans-serif;
                            font-size: 12px;
                            fill: #1A1400;
                            font-weight: normal;
                          }
    text.regexp           {font-family: Verdana, Sans-serif;
                            font-size: 12px;
                            fill: #1F1800;
                            font-weight: normal;
                          }
    rect, circle, polygon {fill: #332900; stroke: #332900;}
    rect.terminal         {fill: #FFDB4D; stroke: #332900; stroke-width: 1;}
    rect.nonterminal      {fill: #FFEC9E; stroke: #332900; stroke-width: 1;}
    rect.text             {fill: none; stroke: none;}
    polygon.regexp        {fill: #FFF4C7; stroke: #332900; stroke-width: 1;}
  </style>
   </defs>
   <polygon points="9 17 1 13 1 21"/>
   <polygon points="17 17 9 13 9 21"/>
   <a xmlns:xlink="http://www.w3.org/1999/xlink"
      xlink:href="#literal"
      xlink:title="literal">
      <rect x="51" y="3" width="56" height="32"/>
      <rect x="49" y="1" width="56" height="32" class="nonterminal"/>
      <text class="nonterminal" x="59" y="21">literal</text>
   </a>
   <a xmlns:xlink="http://www.w3.org/1999/xlink"
      xlink:href="#enum_variant_literal"
      xlink:title="enum_variant_literal">
      <rect x="51" y="47" width="152" height="32"/>
      <rect x="49" y="45" width="152" height="32" class="nonterminal"/>
      <text class="nonterminal" x="59" y="65">enum_variant_literal</text>
   </a>
   <rect x="91" y="135" width="28" height="32" rx="10"/>
   <rect x="89"
         y="133"
         width="28"
         height="32"
         class="terminal"
         rx="10"/>
   <text class="terminal" x="99" y="153">if</text>
   <a xmlns:xlink="http://www.w3.org/1999/xlink"
      xlink:href="#expr"
      xlink:title="expr">
      <rect x="139" y="135" width="48" height="32"/>
      <rect x="137" y="133" width="48" height="32" class="nonterminal"/>
      <text class="nonterminal" x="147" y="153">expr</text>
   </a>
   <rect x="91" y="91" width="46" height="32" rx="10"/>
   <rect x="89"
         y="89"
         width="46"
         height="32"
         class="terminal"
         rx="10"/>
   <text class="terminal" x="99" y="109">else</text>
   <a xmlns:xlink="http://www.w3.org/1999/xlink"
      xlink:href="#block"
      xlink:title="block">
      <rect x="157" y="91" width="52" height="32"/>
      <rect x="155" y="89" width="52" height="32" class="nonterminal"/>
      <text class="nonterminal" x="165" y="109">block</text>
   </a>
   <a xmlns:xlink="http://www.w3.org/1999/xlink"
      xlink:href="#block"
      xlink:title="block">
      <rect x="269" y="167" width="52" height="32"/>
      <rect x="267" y="165" width="52" height="32" class="nonterminal"/>
      <text class="nonterminal" x="277" y="185">block</text>
   </a>
   <rect x="341" y="167" width="46" height="32" rx="10"/>
   <rect x="339"
         y="165"
         width="46"
         height="32"
         class="terminal"
         rx="10"/>
   <text class="terminal" x="349" y="185">else</text>
   <a xmlns:xlink="http://www.w3.org/1999/xlink"
      xlink:href="#block"
      xlink:title="block">
      <rect x="447" y="135" width="52" height="32"/>
      <rect x="445" y="133" width="52" height="32" class="nonterminal"/>
      <text class="nonterminal" x="455" y="153">block</text>
   </a>
   <rect x="51" y="233" width="26" height="32" rx="10"/>
   <rect x="49"
         y="231"
         width="26"
         height="32"
         class="terminal"
         rx="10"/>
   <text class="terminal" x="59" y="251">(</text>
   <a xmlns:xlink="http://www.w3.org/1999/xlink"
      xlink:href="#expr"
      xlink:title="expr">
      <rect x="97" y="233" width="48" height="32"/>
      <rect x="95" y="231" width="48" height="32" class="nonterminal"/>
      <text class="nonterminal" x="105" y="251">expr</text>
   </a>
   <rect x="165" y="233" width="26" height="32" rx="10"/>
   <rect x="163"
         y="231"
         width="26"
         height="32"
         class="terminal"
         rx="10"/>
   <text class="terminal" x="173" y="251">)</text>
   <a xmlns:xlink="http://www.w3.org/1999/xlink"
      xlink:href="#initializer"
      xlink:title="initializer">
      <rect x="51" y="277" width="78" height="32"/>
      <rect x="49" y="275" width="78" height="32" class="nonterminal"/>
      <text class="nonterminal" x="59" y="295">initializer</text>
   </a>
   <a xmlns:xlink="http://www.w3.org/1999/xlink"
      xlink:href="#match_expr"
      xlink:title="match_expr">
      <rect x="51" y="321" width="94" height="32"/>
      <rect x="49" y="319" width="94" height="32" class="nonterminal"/>
      <text class="nonterminal" x="59" y="339">match_expr</text>
   </a>
   <a xmlns:xlink="http://www.w3.org/1999/xlink"
      xlink:href="#as_expr"
      xlink:title="as_expr">
      <rect x="51" y="365" width="70" height="32"/>
      <rect x="49" y="363" width="70" height="32" class="nonterminal"/>
      <text class="nonterminal" x="59" y="383">as_expr</text>
   </a>
   <a xmlns:xlink="http://www.w3.org/1999/xlink"
      xlink:href="#size_expr"
      xlink:title="size_expr">
      <rect x="51" y="409" width="82" height="32"/>
      <rect x="49" y="407" width="82" height="32" class="nonterminal"/>
      <text class="nonterminal" x="59" y="427">size_expr</text>
   </a>
   <rect x="51" y="453" width="36" height="32" rx="10"/>
   <rect x="49"
         y="451"
         width="36"
         height="32"
         class="terminal"
         rx="10"/>
   <text class="terminal" x="59" y="471">nil</text>
   <a xmlns:xlink="http://www.w3.org/1999/xlink"
      xlink:href="#IDENT"
      xlink:title="IDENT">
      <rect x="51" y="497" width="58" height="32"/>
      <rect x="49" y="495" width="58" height="32" class="nonterminal"/>
      <text class="nonterminal" x="59" y="515">IDENT</text>
   </a>
   <path class="line"
         d="m17 17 h2 m20 0 h10 m56 0 h10 m0 0 h392 m-488 0 h20 m468 0 h20 m-508 0 q10 0 10 10 m488 0 q0 -10 10 -10 m-498 10 v24 m488 0 v-24 m-488 24 q0 10 10 10 m468 0 q10 0 10 -10 m-478 10 h10 m152 0 h10 m0 0 h296 m-478 -10 v20 m488 0 v-20 m-488 20 v68 m488 0 v-68 m-488 68 q0 10 10 10 m468 0 q10 0 10 -10 m-438 10 h10 m28 0 h10 m0 0 h10 m48 0 h10 m0 0 h22 m-158 0 l20 0 m-1 0 q-9 0 -9 -10 l0 -24 q0 -10 10 -10 m138 44 l20 0 m-20 0 q10 0 10 -10 l0 -24 q0 -10 -10 -10 m-138 0 h10 m46 0 h10 m0 0 h10 m52 0 h10 m40 44 h10 m0 0 h128 m-158 0 h20 m138 0 h20 m-178 0 q10 0 10 10 m158 0 q0 -10 10 -10 m-168 10 v12 m158 0 v-12 m-158 12 q0 10 10 10 m138 0 q10 0 10 -10 m-148 10 h10 m52 0 h10 m0 0 h10 m46 0 h10 m-356 -32 h20 m356 0 h20 m-396 0 q10 0 10 10 m376 0 q0 -10 10 -10 m-386 10 v46 m376 0 v-46 m-376 46 q0 10 10 10 m356 0 q10 0 10 -10 m-366 10 h10 m0 0 h346 m20 -66 h10 m52 0 h10 m-478 -10 v20 m488 0 v-20 m-488 20 v78 m488 0 v-78 m-488 78 q0 10 10 10 m468 0 q10 0 10 -10 m-478 10 h10 m26 0 h10 m0 0 h10 m48 0 h10 m0 0 h10 m26 0 h10 m0 0 h308 m-478 -10 v20 m488 0 v-20 m-488 20 v24 m488 0 v-24 m-488 24 q0 10 10 10 m468 0 q10 0 10 -10 m-478 10 h10 m78 0 h10 m0 0 h370 m-478 -10 v20 m488 0 v-20 m-488 20 v24 m488 0 v-24 m-488 24 q0 10 10 10 m468 0 q10 0 10 -10 m-478 10 h10 m94 0 h10 m0 0 h354 m-478 -10 v20 m488 0 v-20 m-488 20 v24 m488 0 v-24 m-488 24 q0 10 10 10 m468 0 q10 0 10 -10 m-478 10 h10 m70 0 h10 m0 0 h378 m-478 -10 v20 m488 0 v-20 m-488 20 v24 m488 0 v-24 m-488 24 q0 10 10 10 m468 0 q10 0 10 -10 m-478 10 h10 m82 0 h10 m0 0 h366 m-478 -10 v20 m488 0 v-20 m-488 20 v24 m488 0 v-24 m-488 24 q0 10 10 10 m468 0 q10 0 10 -10 m-478 10 h10 m36 0 h10 m0 0 h412 m-478 -10 v20 m488 0 v-20 m-488 20 v24 m488 0 v-24 m-488 24 q0 10 10 10 m468 0 q10 0 10 -10 m-478 10 h10 m58 0 h10 m0 0 h390 m23 -494 h-3"/>
   <polygon points="537 17 545 13 545 21"/>
   <polygon points="537 17 529 13 529 21"/>
</svg>
