<?xml version="1.0" encoding="UTF-8"?>
<svg xmlns="http://www.w3.org/2000/svg" width="189" height="345">
   <defs>
      <style type="text/css">
    @namespace "http://www.w3.org/2000/svg";
    .line                 {fill: none; stroke: #332900; stroke-width: 1;}
    .bold-line            {stroke: #141000; shape-rendering: crispEdges; stroke-width: 2;}
    .thin-line            {stroke: #1F1800; shape-rendering: crispEdges}
    .filled               {fill: #332900; stroke: none;}
    text.terminal         {font-family: Verdana, Sans-serif;
                            font-size: 12px;
                            fill: #141000;
                            font-weight: bold;
                          }
    text.nonterminal      {font-family: Verdana, Sans-serif;
                            font-size: 12px;
                            fill: #1A1400;
                            font-weight: normal;
                          }
    text.regexp           {font-family: Verdana, Sans-serif;
                            font-size: 12px;
                            fill: #1F1800;
                            font-weight: normal;
                          }
    rect, circle, polygon {fill: #332900; stroke: #332900;}
    rect.terminal         {fill: #FFDB4D; stroke: #332900; stroke-width: 1;}
    rect.nonterminal      {fill: #FFEC9E; stroke: #332900; stroke-width: 1;}
    rect.text             {fill: none; stroke: none;}
    polygon.regexp        {fill: #FFF4C7; stroke: #332900; stroke-width: 1;}
  </style>
   </defs>
   <polygon points="9 17 1 13 1 21"/>
   <polygon points="17 17 9 13 9 21"/>
   <a xmlns:xlink="http://www.w3.org/1999/xlink"
      xlink:href="#let_stmt"
      xlink:title="let_stmt">
      <rect x="51" y="3" width="72" height="32"/>
      <rect x="49" y="1" width="72" height="32" class="nonterminal"/>
      <text class="nonterminal" x="59" y="21">let_stmt</text>
   </a>
   <a xmlns:xlink="http://www.w3.org/1999/xlink"
      xlink:href="#ret_stmt"
      xlink:title="ret_stmt">
      <rect x="51" y="47" width="74" height="32"/>
      <rect x="49" y="45" width="74" height="32" class="nonterminal"/>
      <text class="nonterminal" x="59" y="65">ret_stmt</text>
   </a>
   <a xmlns:xlink="http://www.w3.org/1999/xlink"
      xlink:href="#defer_stmt"
      xlink:title="defer_stmt">
      <rect x="51" y="91" width="90" height="32"/>
      <rect x="49" y="89" width="90" height="32" class="nonterminal"/>
      <text class="nonterminal" x="59" y="109">defer_stmt</text>
   </a>
   <a xmlns:xlink="http://www.w3.org/1999/xlink"
      xlink:href="#iter_stmt"
      xlink:title="iter_stmt">
      <rect x="51" y="135" width="78" height="32"/>
      <rect x="49" y="133" width="78" height="32" class="nonterminal"/>
      <text class="nonterminal" x="59" y="153">iter_stmt</text>
   </a>
   <a xmlns:xlink="http://www.w3.org/1999/xlink"
      xlink:href="#while_stmt"
      xlink:title="while_stmt">
      <rect x="51" y="179" width="88" height="32"/>
      <rect x="49" y="177" width="88" height="32" class="nonterminal"/>
      <text class="nonterminal" x="59" y="197">while_stmt</text>
   </a>
   <rect x="51" y="223" width="58" height="32" rx="10"/>
   <rect x="49"
         y="221"
         width="58"
         height="32"
         class="terminal"
         rx="10"/>
   <text class="terminal" x="59" y="241">break</text>
   <rect x="51" y="267" width="78" height="32" rx="10"/>
   <rect x="49"
         y="265"
         width="78"
         height="32"
         class="terminal"
         rx="10"/>
   <text class="terminal" x="59" y="285">continue</text>
   <a xmlns:xlink="http://www.w3.org/1999/xlink"
      xlink:href="#expr_stmt"
      xlink:title="expr_stmt">
      <rect x="51" y="311" width="84" height="32"/>
      <rect x="49" y="309" width="84" height="32" class="nonterminal"/>
      <text class="nonterminal" x="59" y="329">expr_stmt</text>
   </a>
   <path class="line"
         d="m17 17 h2 m20 0 h10 m72 0 h10 m0 0 h18 m-130 0 h20 m110 0 h20 m-150 0 q10 0 10 10 m130 0 q0 -10 10 -10 m-140 10 v24 m130 0 v-24 m-130 24 q0 10 10 10 m110 0 q10 0 10 -10 m-120 10 h10 m74 0 h10 m0 0 h16 m-120 -10 v20 m130 0 v-20 m-130 20 v24 m130 0 v-24 m-130 24 q0 10 10 10 m110 0 q10 0 10 -10 m-120 10 h10 m90 0 h10 m-120 -10 v20 m130 0 v-20 m-130 20 v24 m130 0 v-24 m-130 24 q0 10 10 10 m110 0 q10 0 10 -10 m-120 10 h10 m78 0 h10 m0 0 h12 m-120 -10 v20 m130 0 v-20 m-130 20 v24 m130 0 v-24 m-130 24 q0 10 10 10 m110 0 q10 0 10 -10 m-120 10 h10 m88 0 h10 m0 0 h2 m-120 -10 v20 m130 0 v-20 m-130 20 v24 m130 0 v-24 m-130 24 q0 10 10 10 m110 0 q10 0 10 -10 m-120 10 h10 m58 0 h10 m0 0 h32 m-120 -10 v20 m130 0 v-20 m-130 20 v24 m130 0 v-24 m-130 24 q0 10 10 10 m110 0 q10 0 10 -10 m-120 10 h10 m78 0 h10 m0 0 h12 m-120 -10 v20 m130 0 v-20 m-130 20 v24 m130 0 v-24 m-130 24 q0 10 10 10 m110 0 q10 0 10 -10 m-120 10 h10 m84 0 h10 m0 0 h6 m23 -308 h-3"/>
   <polygon points="179 17 187 13 187 21"/>
   <polygon points="179 17 171 13 171 21"/>
</svg>
