<?xml version="1.0" encoding="UTF-8"?>
<svg xmlns="http://www.w3.org/2000/svg" width="255" height="257">
   <defs>
      <style type="text/css">
    @namespace "http://www.w3.org/2000/svg";
    .line                 {fill: none; stroke: #332900; stroke-width: 1;}
    .bold-line            {stroke: #141000; shape-rendering: crispEdges; stroke-width: 2;}
    .thin-line            {stroke: #1F1800; shape-rendering: crispEdges}
    .filled               {fill: #332900; stroke: none;}
    text.terminal         {font-family: Verdana, Sans-serif;
                            font-size: 12px;
                            fill: #141000;
                            font-weight: bold;
                          }
    text.nonterminal      {font-family: Verdana, Sans-serif;
                            font-size: 12px;
                            fill: #1A1400;
                            font-weight: normal;
                          }
    text.regexp           {font-family: Verdana, Sans-serif;
                            font-size: 12px;
                            fill: #1F1800;
                            font-weight: normal;
                          }
    rect, circle, polygon {fill: #332900; stroke: #332900;}
    rect.terminal         {fill: #FFDB4D; stroke: #332900; stroke-width: 1;}
    rect.nonterminal      {fill: #FFEC9E; stroke: #332900; stroke-width: 1;}
    rect.text             {fill: none; stroke: none;}
    polygon.regexp        {fill: #FFF4C7; stroke: #332900; stroke-width: 1;}
  </style>
   </defs>
   <polygon points="9 17 1 13 1 21"/>
   <polygon points="17 17 9 13 9 21"/>
   <a xmlns:xlink="http://www.w3.org/1999/xlink"
      xlink:href="#builtin_type"
      xlink:title="builtin_type">
      <rect x="51" y="3" width="94" height="32"/>
      <rect x="49" y="1" width="94" height="32" class="nonterminal"/>
      <text class="nonterminal" x="59" y="21">builtin_type</text>
   </a>
   <a xmlns:xlink="http://www.w3.org/1999/xlink"
      xlink:href="#type_path"
      xlink:title="type_path">
      <rect x="51" y="47" width="84" height="32"/>
      <rect x="49" y="45" width="84" height="32" class="nonterminal"/>
      <text class="nonterminal" x="59" y="65">type_path</text>
   </a>
   <a xmlns:xlink="http://www.w3.org/1999/xlink"
      xlink:href="#type_cell"
      xlink:title="type_cell">
      <rect x="51" y="91" width="76" height="32"/>
      <rect x="49" y="89" width="76" height="32" class="nonterminal"/>
      <text class="nonterminal" x="59" y="109">type_cell</text>
   </a>
   <a xmlns:xlink="http://www.w3.org/1999/xlink"
      xlink:href="#type_function"
      xlink:title="type_function">
      <rect x="51" y="135" width="106" height="32"/>
      <rect x="49" y="133" width="106" height="32" class="nonterminal"/>
      <text class="nonterminal" x="59" y="153">type_function</text>
   </a>
   <a xmlns:xlink="http://www.w3.org/1999/xlink"
      xlink:href="#type_vararg_function"
      xlink:title="type_vararg_function">
      <rect x="51" y="179" width="156" height="32"/>
      <rect x="49" y="177" width="156" height="32" class="nonterminal"/>
      <text class="nonterminal" x="59" y="197">type_vararg_function</text>
   </a>
   <a xmlns:xlink="http://www.w3.org/1999/xlink"
      xlink:href="#IDENT"
      xlink:title="IDENT">
      <rect x="51" y="223" width="58" height="32"/>
      <rect x="49" y="221" width="58" height="32" class="nonterminal"/>
      <text class="nonterminal" x="59" y="241">IDENT</text>
   </a>
   <path class="line"
         d="m17 17 h2 m20 0 h10 m94 0 h10 m0 0 h62 m-196 0 h20 m176 0 h20 m-216 0 q10 0 10 10 m196 0 q0 -10 10 -10 m-206 10 v24 m196 0 v-24 m-196 24 q0 10 10 10 m176 0 q10 0 10 -10 m-186 10 h10 m84 0 h10 m0 0 h72 m-186 -10 v20 m196 0 v-20 m-196 20 v24 m196 0 v-24 m-196 24 q0 10 10 10 m176 0 q10 0 10 -10 m-186 10 h10 m76 0 h10 m0 0 h80 m-186 -10 v20 m196 0 v-20 m-196 20 v24 m196 0 v-24 m-196 24 q0 10 10 10 m176 0 q10 0 10 -10 m-186 10 h10 m106 0 h10 m0 0 h50 m-186 -10 v20 m196 0 v-20 m-196 20 v24 m196 0 v-24 m-196 24 q0 10 10 10 m176 0 q10 0 10 -10 m-186 10 h10 m156 0 h10 m-186 -10 v20 m196 0 v-20 m-196 20 v24 m196 0 v-24 m-196 24 q0 10 10 10 m176 0 q10 0 10 -10 m-186 10 h10 m58 0 h10 m0 0 h98 m23 -220 h-3"/>
   <polygon points="245 17 253 13 253 21"/>
   <polygon points="245 17 237 13 237 21"/>
</svg>
