<?xml version="1.0" encoding="UTF-8"?>
<svg xmlns="http://www.w3.org/2000/svg" width="577" height="81">
   <defs>
      <style type="text/css">
    @namespace "http://www.w3.org/2000/svg";
    .line                 {fill: none; stroke: #332900; stroke-width: 1;}
    .bold-line            {stroke: #141000; shape-rendering: crispEdges; stroke-width: 2;}
    .thin-line            {stroke: #1F1800; shape-rendering: crispEdges}
    .filled               {fill: #332900; stroke: none;}
    text.terminal         {font-family: Verdana, Sans-serif;
                            font-size: 12px;
                            fill: #141000;
                            font-weight: bold;
                          }
    text.nonterminal      {font-family: Verdana, Sans-serif;
                            font-size: 12px;
                            fill: #1A1400;
                            font-weight: normal;
                          }
    text.regexp           {font-family: Verdana, Sans-serif;
                            font-size: 12px;
                            fill: #1F1800;
                            font-weight: normal;
                          }
    rect, circle, polygon {fill: #332900; stroke: #332900;}
    rect.terminal         {fill: #FFDB4D; stroke: #332900; stroke-width: 1;}
    rect.nonterminal      {fill: #FFEC9E; stroke: #332900; stroke-width: 1;}
    rect.text             {fill: none; stroke: none;}
    polygon.regexp        {fill: #FFF4C7; stroke: #332900; stroke-width: 1;}
  </style>
   </defs>
   <polygon points="9 17 1 13 1 21"/>
   <polygon points="17 17 9 13 9 21"/>
   <rect x="31" y="3" width="30" height="32" rx="10"/>
   <rect x="29"
         y="1"
         width="30"
         height="32"
         class="terminal"
         rx="10"/>
   <text class="terminal" x="39" y="21">&lt;</text>
   <rect x="81" y="3" width="26" height="32" rx="10"/>
   <rect x="79"
         y="1"
         width="26"
         height="32"
         class="terminal"
         rx="10"/>
   <text class="terminal" x="89" y="21">(</text>
   <a xmlns:xlink="http://www.w3.org/1999/xlink"
      xlink:href="#function_type_params"
      xlink:title="function_type_params">
      <rect x="147" y="3" width="162" height="32"/>
      <rect x="145" y="1" width="162" height="32" class="nonterminal"/>
      <text class="nonterminal" x="155" y="21">function_type_params</text>
   </a>
   <rect x="147" y="47" width="28" height="32" rx="10"/>
   <rect x="145"
         y="45"
         width="28"
         height="32"
         class="terminal"
         rx="10"/>
   <text class="terminal" x="155" y="65">_</text>
   <rect x="349" y="3" width="26" height="32" rx="10"/>
   <rect x="347"
         y="1"
         width="26"
         height="32"
         class="terminal"
         rx="10"/>
   <text class="terminal" x="357" y="21">)</text>
   <rect x="395" y="3" width="36" height="32" rx="10"/>
   <rect x="393"
         y="1"
         width="36"
         height="32"
         class="terminal"
         rx="10"/>
   <text class="terminal" x="403" y="21">-&gt;</text>
   <a xmlns:xlink="http://www.w3.org/1999/xlink"
      xlink:href="#type"
      xlink:title="type">
      <rect x="451" y="3" width="48" height="32"/>
      <rect x="449" y="1" width="48" height="32" class="nonterminal"/>
      <text class="nonterminal" x="459" y="21">type</text>
   </a>
   <rect x="519" y="3" width="30" height="32" rx="10"/>
   <rect x="517"
         y="1"
         width="30"
         height="32"
         class="terminal"
         rx="10"/>
   <text class="terminal" x="527" y="21">&gt;</text>
   <path class="line"
         d="m17 17 h2 m0 0 h10 m30 0 h10 m0 0 h10 m26 0 h10 m20 0 h10 m162 0 h10 m-202 0 h20 m182 0 h20 m-222 0 q10 0 10 10 m202 0 q0 -10 10 -10 m-212 10 v24 m202 0 v-24 m-202 24 q0 10 10 10 m182 0 q10 0 10 -10 m-192 10 h10 m28 0 h10 m0 0 h134 m20 -44 h10 m26 0 h10 m0 0 h10 m36 0 h10 m0 0 h10 m48 0 h10 m0 0 h10 m30 0 h10 m3 0 h-3"/>
   <polygon points="567 17 575 13 575 21"/>
   <polygon points="567 17 559 13 559 21"/>
</svg>
