<?xml version="1.0" encoding="UTF-8"?>
<svg xmlns="http://www.w3.org/2000/svg" width="451" height="69">
   <defs>
      <style type="text/css">
    @namespace "http://www.w3.org/2000/svg";
    .line                 {fill: none; stroke: #332900; stroke-width: 1;}
    .bold-line            {stroke: #141000; shape-rendering: crispEdges; stroke-width: 2;}
    .thin-line            {stroke: #1F1800; shape-rendering: crispEdges}
    .filled               {fill: #332900; stroke: none;}
    text.terminal         {font-family: Verdana, Sans-serif;
                            font-size: 12px;
                            fill: #141000;
                            font-weight: bold;
                          }
    text.nonterminal      {font-family: Verdana, Sans-serif;
                            font-size: 12px;
                            fill: #1A1400;
                            font-weight: normal;
                          }
    text.regexp           {font-family: Verdana, Sans-serif;
                            font-size: 12px;
                            fill: #1F1800;
                            font-weight: normal;
                          }
    rect, circle, polygon {fill: #332900; stroke: #332900;}
    rect.terminal         {fill: #FFDB4D; stroke: #332900; stroke-width: 1;}
    rect.nonterminal      {fill: #FFEC9E; stroke: #332900; stroke-width: 1;}
    rect.text             {fill: none; stroke: none;}
    polygon.regexp        {fill: #FFF4C7; stroke: #332900; stroke-width: 1;}
  </style>
   </defs>
   <polygon points="9 17 1 13 1 21"/>
   <polygon points="17 17 9 13 9 21"/>
   <rect x="31" y="3" width="44" height="32" rx="10"/>
   <rect x="29"
         y="1"
         width="44"
         height="32"
         class="terminal"
         rx="10"/>
   <text class="terminal" x="39" y="21">Vec</text>
   <rect x="95" y="3" width="30" height="32" rx="10"/>
   <rect x="93"
         y="1"
         width="30"
         height="32"
         class="terminal"
         rx="10"/>
   <text class="terminal" x="103" y="21">&lt;</text>
   <a xmlns:xlink="http://www.w3.org/1999/xlink"
      xlink:href="#unary"
      xlink:title="unary">
      <rect x="145" y="3" width="56" height="32"/>
      <rect x="143" y="1" width="56" height="32" class="nonterminal"/>
      <text class="nonterminal" x="153" y="21">unary</text>
   </a>
   <a xmlns:xlink="http://www.w3.org/1999/xlink"
      xlink:href="#vec_literal_tail"
      xlink:title="vec_literal_tail">
      <rect x="241" y="35" width="112" height="32"/>
      <rect x="239" y="33" width="112" height="32" class="nonterminal"/>
      <text class="nonterminal" x="249" y="53">vec_literal_tail</text>
   </a>
   <rect x="393" y="3" width="30" height="32" rx="10"/>
   <rect x="391"
         y="1"
         width="30"
         height="32"
         class="terminal"
         rx="10"/>
   <text class="terminal" x="401" y="21">&gt;</text>
   <path class="line"
         d="m17 17 h2 m0 0 h10 m44 0 h10 m0 0 h10 m30 0 h10 m0 0 h10 m56 0 h10 m20 0 h10 m0 0 h122 m-152 0 h20 m132 0 h20 m-172 0 q10 0 10 10 m152 0 q0 -10 10 -10 m-162 10 v12 m152 0 v-12 m-152 12 q0 10 10 10 m132 0 q10 0 10 -10 m-142 10 h10 m112 0 h10 m20 -32 h10 m30 0 h10 m3 0 h-3"/>
   <polygon points="441 17 449 13 449 21"/>
   <polygon points="441 17 433 13 433 21"/>
</svg>
