<?xml version="1.0" encoding="UTF-8"?>
<svg xmlns="http://www.w3.org/2000/svg" width="213" height="185">
   <defs>
      <style type="text/css">
    @namespace "http://www.w3.org/2000/svg";
    .line                 {fill: none; stroke: #332900; stroke-width: 1;}
    .bold-line            {stroke: #141000; shape-rendering: crispEdges; stroke-width: 2;}
    .thin-line            {stroke: #1F1800; shape-rendering: crispEdges}
    .filled               {fill: #332900; stroke: none;}
    text.terminal         {font-family: Verdana, Sans-serif;
                            font-size: 12px;
                            fill: #141000;
                            font-weight: bold;
                          }
    text.nonterminal      {font-family: Verdana, Sans-serif;
                            font-size: 12px;
                            fill: #1A1400;
                            font-weight: normal;
                          }
    text.regexp           {font-family: Verdana, Sans-serif;
                            font-size: 12px;
                            fill: #1F1800;
                            font-weight: normal;
                          }
    rect, circle, polygon {fill: #332900; stroke: #332900;}
    rect.terminal         {fill: #FFDB4D; stroke: #332900; stroke-width: 1;}
    rect.nonterminal      {fill: #FFEC9E; stroke: #332900; stroke-width: 1;}
    rect.text             {fill: none; stroke: none;}
    polygon.regexp        {fill: #FFF4C7; stroke: #332900; stroke-width: 1;}
  </style>
   </defs>
   <polygon points="9 33 1 29 1 37"/>
   <polygon points="17 33 9 29 9 37"/>
   <polygon points="71 35 78 19 138 19 145 35 138 51 78 51"/>
   <polygon points="69 33 76 17 136 17 143 33 136 49 76 49" class="regexp"/>
   <text class="regexp" x="84" y="37">[#x20]</text>
   <polygon points="71 79 78 63 138 63 145 79 138 95 78 95"/>
   <polygon points="69 77 76 61 136 61 143 77 136 93 76 93" class="regexp"/>
   <text class="regexp" x="84" y="81">[#x09]</text>
   <polygon points="71 123 78 107 138 107 145 123 138 139 78 139"/>
   <polygon points="69 121 76 105 136 105 143 121 136 137 76 137" class="regexp"/>
   <text class="regexp" x="84" y="125">[#x0A]</text>
   <polygon points="71 167 78 151 138 151 145 167 138 183 78 183"/>
   <polygon points="69 165 76 149 136 149 143 165 136 181 76 181" class="regexp"/>
   <text class="regexp" x="84" y="169">[#x0D]</text>
   <path class="line"
         d="m17 33 h2 m40 0 h10 m74 0 h10 m-114 0 h20 m94 0 h20 m-134 0 q10 0 10 10 m114 0 q0 -10 10 -10 m-124 10 v24 m114 0 v-24 m-114 24 q0 10 10 10 m94 0 q10 0 10 -10 m-104 10 h10 m74 0 h10 m-104 -10 v20 m114 0 v-20 m-114 20 v24 m114 0 v-24 m-114 24 q0 10 10 10 m94 0 q10 0 10 -10 m-104 10 h10 m74 0 h10 m-104 -10 v20 m114 0 v-20 m-114 20 v24 m114 0 v-24 m-114 24 q0 10 10 10 m94 0 q10 0 10 -10 m-104 10 h10 m74 0 h10 m-134 -132 l20 0 m-1 0 q-9 0 -9 -10 l0 -12 q0 -10 10 -10 m134 32 l20 0 m-20 0 q10 0 10 -10 l0 -12 q0 -10 -10 -10 m-134 0 h10 m0 0 h124 m23 32 h-3"/>
   <polygon points="203 33 211 29 211 37"/>
   <polygon points="203 33 195 29 195 37"/>
</svg>
